<svg width="52" height="51" viewBox="0 0 52 51" fill="none" xmlns="http://www.w3.org/2000/svg">
<rect x="1.25" y="0.75" width="49.5" height="49.5" rx="24.75" fill="#EFF5FF" stroke="white" stroke-width="1.5"/>
<path d="M24.3627 25.9545C24.3627 27.3651 24.0985 28.5732 23.57 29.5788C23.0459 30.5803 22.33 31.3473 21.4223 31.88C20.5189 32.4126 19.4941 32.679 18.3477 32.679C17.2014 32.679 16.1744 32.4126 15.2668 31.88C14.3634 31.343 13.6475 30.5739 13.1191 29.5724C12.5949 28.5668 12.3328 27.3608 12.3328 25.9545C12.3328 24.544 12.5949 23.3381 13.1191 22.3366C13.6475 21.331 14.3634 20.5618 15.2668 20.0291C16.1744 19.4964 17.2014 19.2301 18.3477 19.2301C19.4941 19.2301 20.5189 19.4964 21.4223 20.0291C22.33 20.5618 23.0459 21.331 23.57 22.3366C24.0985 23.3381 24.3627 24.544 24.3627 25.9545ZM21.9784 25.9545C21.9784 24.9616 21.8229 24.1243 21.5118 23.4425C21.205 22.7564 20.7789 22.2386 20.2334 21.8892C19.6879 21.5355 19.0594 21.3587 18.3477 21.3587C17.6361 21.3587 17.0075 21.5355 16.4621 21.8892C15.9166 22.2386 15.4884 22.7564 15.1773 23.4425C14.8705 24.1243 14.7171 24.9616 14.7171 25.9545C14.7171 26.9474 14.8705 27.7869 15.1773 28.473C15.4884 29.1548 15.9166 29.6726 16.4621 30.0263C17.0075 30.3757 17.6361 30.5504 18.3477 30.5504C19.0594 30.5504 19.6879 30.3757 20.2334 30.0263C20.7789 29.6726 21.205 29.1548 21.5118 28.473C21.8229 27.7869 21.9784 26.9474 21.9784 25.9545ZM26.6047 19.4091H29.5067L33.393 28.8949H33.5464L37.4328 19.4091H40.3348V32.5H38.0592V23.5064H37.9378L34.3199 32.4616H32.6196L29.0017 23.4872H28.8802V32.5H26.6047V19.4091Z" fill="#101928"/>
</svg>
