<svg width="20" height="20" viewBox="0 0 20 20" fill="none" xmlns="http://www.w3.org/2000/svg">
<path d="M5.76367 12.3782L8.25784 9.13739L11.1028 11.3707L13.5437 8.2207" stroke="#030712" stroke-width="1.5" stroke-linecap="round" stroke-linejoin="round"/>
<path fill-rule="evenodd" clip-rule="evenodd" d="M16.3888 1.95825C17.2738 1.95825 17.9904 2.67492 17.9904 3.55992C17.9904 4.44408 17.2738 5.16159 16.3888 5.16159C15.5038 5.16159 14.7871 4.44408 14.7871 3.55992C14.7871 2.67492 15.5038 1.95825 16.3888 1.95825Z" stroke="#030712" stroke-width="1.5" stroke-linecap="round" stroke-linejoin="round"/>
<path d="M17.296 7.72419C17.4069 8.47004 17.4577 9.31004 17.4577 10.2525C17.4577 16.0342 15.531 17.9609 9.74938 17.9609C3.96852 17.9609 2.04102 16.0342 2.04102 10.2525C2.04102 4.47169 3.96852 2.54419 9.74938 2.54419C10.6744 2.54419 11.5002 2.59336 12.2352 2.70002" stroke="#030712" stroke-width="1.5" stroke-linecap="round" stroke-linejoin="round"/>
</svg>
