<svg width="20" height="20" viewBox="0 0 20 20" fill="none" xmlns="http://www.w3.org/2000/svg">
<path fill-rule="evenodd" clip-rule="evenodd" d="M8.26833 18.1737C5.09 18.1737 2.375 17.6929 2.375 15.7679C2.375 13.8429 5.0725 12.092 8.26833 12.092C11.4466 12.092 14.1616 13.8262 14.1616 15.7504C14.1616 17.6745 11.4641 18.1737 8.26833 18.1737Z" stroke="#030712" stroke-width="2" stroke-linecap="round" stroke-linejoin="round"/>
<path fill-rule="evenodd" clip-rule="evenodd" d="M8.26776 9.34673C10.3536 9.34673 12.0452 7.65508 12.0452 5.56925C12.0452 3.48258 10.3536 1.79175 8.26776 1.79175C6.18193 1.79175 4.49026 3.48258 4.49026 5.56925C4.48276 7.64758 6.16276 9.33923 8.24109 9.34673H8.26776Z" stroke="#030712" stroke-width="2" stroke-linecap="round" stroke-linejoin="round"/>
<path d="M15.9434 6.77441V10.1161" stroke="#030712" stroke-width="2" stroke-linecap="round" stroke-linejoin="round"/>
<path d="M17.6486 8.44482H14.2402" stroke="#030712" stroke-width="2" stroke-linecap="round" stroke-linejoin="round"/>
</svg>
