<svg width="20" height="20" viewBox="0 0 20 20" fill="none" xmlns="http://www.w3.org/2000/svg">
<path d="M2.29102 2.70825L4.02435 3.00825L4.82685 12.5691C4.89102 13.3499 5.54352 13.9491 6.32685 13.9466H15.4177C16.1652 13.9483 16.7994 13.3983 16.9052 12.6583L17.696 7.19325C17.7843 6.58242 17.3602 6.01575 16.7502 5.92742C16.6969 5.91992 4.30268 5.91575 4.30268 5.91575" stroke="#030712" stroke-width="1.5" stroke-linecap="round" stroke-linejoin="round"/>
<path d="M11.7695 8.99561H14.0804" stroke="#030712" stroke-width="1.5" stroke-linecap="round" stroke-linejoin="round"/>
<path fill-rule="evenodd" clip-rule="evenodd" d="M5.96115 16.8354C6.21198 16.8354 6.41448 17.0388 6.41448 17.2888C6.41448 17.5396 6.21198 17.7429 5.96115 17.7429C5.71031 17.7429 5.50781 17.5396 5.50781 17.2888C5.50781 17.0388 5.71031 16.8354 5.96115 16.8354Z" fill="#030712" stroke="#030712" stroke-width="1.5" stroke-linecap="round" stroke-linejoin="round"/>
<path fill-rule="evenodd" clip-rule="evenodd" d="M15.3615 16.8354C15.6124 16.8354 15.8157 17.0388 15.8157 17.2888C15.8157 17.5396 15.6124 17.7429 15.3615 17.7429C15.1107 17.7429 14.9082 17.5396 14.9082 17.2888C14.9082 17.0388 15.1107 16.8354 15.3615 16.8354Z" fill="#030712" stroke="#030712" stroke-width="1.5" stroke-linecap="round" stroke-linejoin="round"/>
</svg>
