<svg width="24" height="24" viewBox="0 0 24 24" fill="none" xmlns="http://www.w3.org/2000/svg">
<path fill-rule="evenodd" clip-rule="evenodd" d="M12.3714 10.8462H6.8106C4.87263 10.8462 3.65796 12.2388 3.65796 14.2087V16.9461C3.65796 18.9168 4.86642 20.3086 6.8106 20.3086H12.3704C14.3146 20.3086 15.5249 18.9168 15.5249 16.9461V14.2087C15.5249 12.2388 14.3146 10.8462 12.3714 10.8462Z" stroke="#030712" stroke-width="1.5" stroke-linecap="round" stroke-linejoin="round"/>
<path d="M15.5193 14.7653L18.3089 12.4484C18.7605 12.073 19.4271 12.1403 19.7972 12.5989C19.9521 12.791 20.0371 13.0318 20.0362 13.2797L20.0265 17.8772C20.0247 18.4694 19.551 18.9494 18.9667 18.9476C18.7224 18.9476 18.4869 18.8608 18.2983 18.7041L15.5193 16.3881" stroke="#030712" stroke-width="1.5" stroke-linecap="round" stroke-linejoin="round"/>
<path d="M9.62744 14.2393H11.9541" stroke="#030712" stroke-width="1.5" stroke-linecap="round" stroke-linejoin="round"/>
<path fill-rule="evenodd" clip-rule="evenodd" d="M15.0597 6.40324C15.0597 7.90032 13.8635 9.1141 12.3885 9.1141C10.9137 9.1141 9.71753 7.90032 9.71753 6.40324C9.71753 4.90616 10.9137 3.69238 12.3885 3.69238C13.8635 3.69238 15.0597 4.90616 15.0597 6.40324Z" stroke="#030712" stroke-width="1.38462" stroke-linecap="round" stroke-linejoin="round"/>
<path fill-rule="evenodd" clip-rule="evenodd" d="M7.70533 7.36772C7.70533 8.33215 6.9348 9.11409 5.98462 9.11409C5.03445 9.11409 4.26392 8.33215 4.26392 7.36772C4.26392 6.40328 5.03445 5.62134 5.98462 5.62134C6.9348 5.62134 7.70533 6.40328 7.70533 7.36772Z" stroke="#030712" stroke-width="1.38462" stroke-linecap="round" stroke-linejoin="round"/>
</svg>
