<svg width="24" height="24" viewBox="0 0 24 24" fill="none" xmlns="http://www.w3.org/2000/svg">
<path d="M17.1306 18.3298C17.1224 19.43 16.2243 20.3156 15.1241 20.3084C14.0275 20.3048 13.141 19.4129 13.1445 18.3154V18.3028C13.1527 17.2017 14.0508 16.3162 15.151 16.3233C16.2512 16.3305 17.1378 17.2286 17.1306 18.3298Z" stroke="#030712" stroke-width="1.38462" stroke-linecap="round" stroke-linejoin="round"/>
<path d="M10.9176 12.0135C10.9096 13.1145 10.0114 14.0001 8.91117 13.9929C7.81453 13.9893 6.92806 13.0966 6.93165 12V11.9865C6.93973 10.8862 7.83788 9.99978 8.93812 10.0079C10.0384 10.015 10.9248 10.9132 10.9176 12.0135Z" stroke="#030712" stroke-width="1.38462" stroke-linecap="round" stroke-linejoin="round"/>
<path d="M16.7555 5.69889C16.7474 6.79912 15.8493 7.6847 14.7491 7.67751C13.6524 7.67392 12.7659 6.78206 12.7695 5.68452V5.67195C12.7777 4.57082 13.6757 3.68524 14.776 3.69243C15.8763 3.69961 16.7627 4.59776 16.7555 5.69889Z" stroke="#030712" stroke-width="1.38462" stroke-linecap="round" stroke-linejoin="round"/>
<path d="M4.29102 18.3154H13.1449M17.1335 18.3154H19.6717" stroke="#030712" stroke-width="1.38462" stroke-linecap="round" stroke-linejoin="round"/>
<path d="M4.29102 12.002H6.93067M10.9184 12.002H19.6717" stroke="#030712" stroke-width="1.38462" stroke-linecap="round" stroke-linejoin="round"/>
<path d="M4.29102 5.68457H12.7659M16.7528 5.68457H19.6709" stroke="#030712" stroke-width="1.38462" stroke-linecap="round" stroke-linejoin="round"/>
</svg>
