<svg width="20" height="20" viewBox="0 0 20 20" fill="none" xmlns="http://www.w3.org/2000/svg">
<path d="M16.5253 10.793V7.63395C16.5253 7.18073 16.3498 6.74514 16.0368 6.41866L12.7921 3.03885C12.4614 2.69474 12.004 2.50002 11.5264 2.50002H6.69048C4.94476 2.49331 3.51378 3.88401 3.47266 5.62972V10.793" stroke="#030712" stroke-width="1.5" stroke-linecap="round" stroke-linejoin="round"/>
<path d="M11.9395 2.552V5.02706C11.9386 6.23563 12.9164 7.21593 14.125 7.21844H16.4691" stroke="#030712" stroke-width="1.5" stroke-linecap="round" stroke-linejoin="round"/>
<path d="M3.67969 16.2266H4.84378C5.5555 16.2266 6.13292 15.6492 6.13292 14.9375C6.13292 14.2266 5.5555 13.6492 4.84378 13.6492H3.67969V17.4948" stroke="#030712" stroke-width="1.5" stroke-linecap="round" stroke-linejoin="round"/>
<path d="M16.5257 13.6458H14.4375V17.5006M16.2047 15.8948H14.4379" stroke="#030712" stroke-width="1.5" stroke-linecap="round" stroke-linejoin="round"/>
<path fill-rule="evenodd" clip-rule="evenodd" d="M9.71155 17.5006C10.2227 17.5006 10.7129 17.2975 11.0746 16.9358C11.4363 16.5748 11.6395 16.0848 11.6395 15.5736C11.6395 15.0617 11.4363 14.5715 11.0746 14.2106C10.7129 13.8488 10.2227 13.6458 9.71155 13.6458H8.74805V17.5006H9.71155Z" stroke="#030712" stroke-width="1.5" stroke-linecap="round" stroke-linejoin="round"/>
</svg>
