<svg width="20" height="20" viewBox="0 0 20 20" fill="none" xmlns="http://www.w3.org/2000/svg">
<path d="M8.70801 17.2692H6.58131C4.7149 17.2692 3.20117 15.7554 3.20117 13.889V5.88014C3.20117 4.01372 4.7149 2.5 6.58131 2.5H12.4043C14.2708 2.5 15.7844 4.01372 15.7844 5.88014V8.64083" stroke="#030712" stroke-width="1.5" stroke-linecap="round" stroke-linejoin="round"/>
<path fill-rule="evenodd" clip-rule="evenodd" d="M13.1355 17.3883L12.5314 17.4896C12.0904 17.5634 11.6996 17.1953 11.7483 16.7493L11.8155 16.1267C11.8479 15.8259 11.9737 15.5438 12.1755 15.3183L14.8057 12.4466C15.1162 12.1109 15.6408 12.0906 15.9764 12.4012L16.5318 12.9152C16.8675 13.2265 16.8877 13.7503 16.5772 14.0859L13.9754 16.9253C13.7565 17.171 13.4598 17.3339 13.1355 17.3883Z" stroke="#030712" stroke-width="1.5" stroke-linecap="round" stroke-linejoin="round"/>
<path d="M11.5789 7.95239H7.409M9.58519 11.593H7.4082" stroke="#030712" stroke-width="1.5" stroke-linecap="round" stroke-linejoin="round"/>
</svg>
