<svg width="24" height="24" viewBox="0 0 24 24" fill="none" xmlns="http://www.w3.org/2000/svg">
<path d="M20.6401 11.5799C20.6401 6.80786 16.7722 2.93994 12.0001 2.93994C7.22802 2.93994 3.36011 6.80786 3.36011 11.5799C3.36011 16.352 7.22802 20.2199 12.0001 20.2199C16.7722 20.2199 20.6401 16.352 20.6401 11.5799Z" stroke="#030712" stroke-width="1.44" stroke-linecap="round" stroke-linejoin="round"/>
<path d="M13.9748 10.0284V9.95738C13.9748 9.27742 13.4237 8.72632 12.7437 8.72632H11.5126C10.6916 8.72632 10.0256 9.39137 10.0256 10.2133C10.0256 11.0344 10.6916 11.7004 11.5126 11.7004H12.5457C13.335 11.7004 13.9758 12.3402 13.9758 13.1294C13.9758 13.9197 13.335 14.5595 12.5457 14.5595H11.2567C10.5767 14.5595 10.0256 14.0074 10.0256 13.3275" stroke="#030712" stroke-width="1.44" stroke-linecap="round" stroke-linejoin="round"/>
<path d="M12.0037 15.4714V14.5644M12.0037 8.72347V7.69507" stroke="#030712" stroke-width="1.44" stroke-linecap="round" stroke-linejoin="round"/>
</svg>
