<svg width="20" height="20" viewBox="0 0 20 20" fill="none" xmlns="http://www.w3.org/2000/svg">
<path d="M9.99935 10.8333C10.4596 10.8333 10.8327 10.4602 10.8327 9.99992C10.8327 9.53968 10.4596 9.16659 9.99935 9.16659C9.53911 9.16659 9.16602 9.53968 9.16602 9.99992C9.16602 10.4602 9.53911 10.8333 9.99935 10.8333Z" stroke="#A4A7AE" stroke-width="1.66667" stroke-linecap="round" stroke-linejoin="round"/>
<path d="M9.99935 4.99992C10.4596 4.99992 10.8327 4.62682 10.8327 4.16659C10.8327 3.70635 10.4596 3.33325 9.99935 3.33325C9.53911 3.33325 9.16602 3.70635 9.16602 4.16659C9.16602 4.62682 9.53911 4.99992 9.99935 4.99992Z" stroke="#A4A7AE" stroke-width="1.66667" stroke-linecap="round" stroke-linejoin="round"/>
<path d="M9.99935 16.6666C10.4596 16.6666 10.8327 16.2935 10.8327 15.8333C10.8327 15.373 10.4596 14.9999 9.99935 14.9999C9.53911 14.9999 9.16602 15.373 9.16602 15.8333C9.16602 16.2935 9.53911 16.6666 9.99935 16.6666Z" stroke="#A4A7AE" stroke-width="1.66667" stroke-linecap="round" stroke-linejoin="round"/>
</svg>
