<svg width="15" height="16" viewBox="0 0 15 16" fill="none" xmlns="http://www.w3.org/2000/svg">
<path d="M1.3171 12.0771C1.34773 11.8015 1.36304 11.6636 1.40475 11.5348C1.44175 11.4205 1.49403 11.3117 1.56016 11.2114C1.63471 11.0984 1.73277 11.0003 1.92889 10.8042L10.7331 2.00004C11.4695 1.26366 12.6634 1.26366 13.3998 2.00004C14.1361 2.73642 14.1361 3.93033 13.3998 4.66671L4.59556 13.4709C4.39944 13.667 4.30138 13.7651 4.18833 13.8396C4.08804 13.9058 3.97927 13.958 3.86497 13.995C3.73614 14.0367 3.59831 14.0521 3.32265 14.0827L1.06641 14.3334L1.3171 12.0771Z" stroke="#A4A7AE" stroke-width="1.5" stroke-linecap="round" stroke-linejoin="round"/>
</svg>
