<svg width="160" height="32" viewBox="0 0 160 32" fill="none" xmlns="http://www.w3.org/2000/svg">
<g clip-path="url(#clip0_15_8593)">
<path d="M55.1315 12.4651H51.3867V19.3443C51.3867 19.9176 51.5302 20.3365 51.8175 20.6011C52.1048 20.8657 52.5245 21.02 53.0768 21.0641C53.629 21.0862 54.314 21.0751 55.1315 21.031V24.9006C52.1932 25.2313 50.1165 24.9557 48.9012 24.0737C47.708 23.1918 47.1118 21.6153 47.1118 19.3443V12.4651H44.2285V8.36409H47.1118V5.02371L51.3867 3.73389V8.36409H55.1315V12.4651Z" fill="#3B82F6"/>
<path d="M30.4934 18.385C31.0678 20.4576 32.6253 21.4939 35.1662 21.4939C36.8012 21.4939 38.0384 20.9426 38.8779 19.8402L42.3244 21.8246C40.6894 24.1838 38.2813 25.3634 35.0998 25.3634C32.3603 25.3634 30.162 24.5366 28.505 22.8829C26.848 21.2293 26.0195 19.1457 26.0195 16.6321C26.0195 14.1406 26.837 12.0681 28.4719 10.4144C30.1068 8.73873 32.2056 7.90088 34.7685 7.90088C37.1986 7.90088 39.1983 8.73873 40.7668 10.4144C42.3574 12.0901 43.1529 14.1627 43.1529 16.6321C43.1529 17.1833 43.0975 17.7676 42.9871 18.385H30.4934ZM30.4271 15.0777H38.8779C38.6347 13.9532 38.1265 13.1154 37.3534 12.5642C36.6023 12.0129 35.7404 11.7373 34.7685 11.7373C33.6196 11.7373 32.6697 12.035 31.9184 12.6303C31.1673 13.2036 30.6702 14.0194 30.4271 15.0777Z" fill="#3B82F6"/>
<path d="M23.8276 12.465V14.251C23.8276 17.5583 22.7671 20.2372 20.6462 22.2877C18.5252 24.3382 15.7857 25.3635 12.4275 25.3635C8.84836 25.3635 5.87683 24.2059 3.51284 21.8908C1.17094 19.5537 0 16.7094 0 13.358C0 9.98456 1.1599 7.12926 3.47968 4.79213C5.82157 2.45496 8.71579 1.28638 12.1623 1.28638C14.3275 1.28638 16.3048 1.78247 18.0944 2.77466C19.884 3.74479 21.2758 5.04567 22.27 6.67728L18.3595 8.92623C17.8072 7.97813 16.9676 7.20644 15.8409 6.61111C14.7362 6.01582 13.499 5.71815 12.1292 5.71815C9.91987 5.71815 8.0972 6.44575 6.66112 7.90097C5.24716 9.33412 4.54018 11.1531 4.54018 13.358C4.54018 15.5408 5.2582 17.3488 6.69425 18.782C8.15242 20.1931 10.0745 20.8986 12.4606 20.8986C14.2281 20.8986 15.6862 20.5128 16.8351 19.7411C18.006 18.9473 18.8014 17.867 19.2211 16.4999H12.1955V12.465H23.8276Z" fill="#3B82F6"/>
<path d="M159.858 12.2337H156.113V19.1129C156.113 19.6862 156.257 20.1051 156.544 20.3697C156.831 20.6342 157.251 20.7886 157.803 20.8327C158.356 20.8547 159.041 20.8437 159.858 20.7996V24.6691C156.92 24.9999 154.843 24.7243 153.628 23.8423C152.435 22.9604 151.838 21.3839 151.838 19.1129V12.2337H148.955V8.13268H151.838V4.7923L156.113 3.50244V8.13268H159.858V12.2337Z" fill="#383BCA"/>
<path d="M142.902 10.9291C143.303 9.85416 143.96 9.04799 144.874 8.51055C145.81 7.97308 146.846 7.70435 147.983 7.70435V12.5415C146.668 12.3847 145.487 12.6534 144.44 13.3476C143.414 14.0418 142.902 15.1951 142.902 16.8075V24.8357H138.59V8.04028H142.902V10.9291Z" fill="#383BCA"/>
<path d="M124.96 18.1885C125.535 20.261 127.092 21.2974 129.633 21.2974C131.268 21.2974 132.505 20.7461 133.345 19.6437L136.791 21.6281C135.156 23.9873 132.748 25.1669 129.567 25.1669C126.827 25.1669 124.629 24.34 122.972 22.6864C121.315 21.0328 120.486 18.9492 120.486 16.4356C120.486 13.9441 121.304 11.8716 122.939 10.2179C124.573 8.5422 126.673 7.70435 129.235 7.70435C131.666 7.70435 133.665 8.5422 135.234 10.2179C136.824 11.8936 137.62 13.9662 137.62 16.4356C137.62 16.9868 137.565 17.5711 137.454 18.1885H124.96ZM124.894 14.8812H133.345C133.102 13.7567 132.594 12.9189 131.82 12.3677C131.069 11.8164 130.207 11.5408 129.235 11.5408C128.086 11.5408 127.136 11.8385 126.385 12.4338C125.634 13.0071 125.137 13.8228 124.894 14.8812Z" fill="#383BCA"/>
<path d="M111.243 7.70435C113.525 7.70435 115.469 8.57581 117.074 10.3187C118.701 12.039 119.515 14.1554 119.515 16.6679C119.515 19.1805 118.701 21.3082 117.074 23.0511C115.469 24.7714 113.525 25.6315 111.243 25.6315C108.869 25.6315 107.038 24.8053 105.75 23.153V31.9468H101.377V8.17969H105.75V10.1829C107.038 8.53056 108.869 7.70435 111.243 7.70435ZM107.072 20.1311C107.954 21.0139 109.073 21.4553 110.429 21.4553C111.785 21.4553 112.904 21.0139 113.785 20.1311C114.689 19.2257 115.141 18.0713 115.141 16.6679C115.141 15.2646 114.689 14.1215 113.785 13.2387C112.904 12.3333 111.785 11.8806 110.429 11.8806C109.073 11.8806 107.954 12.3333 107.072 13.2387C106.191 14.1215 105.75 15.2646 105.75 16.6679C105.75 18.0713 106.191 19.2257 107.072 20.1311Z" fill="#383BCA"/>
<path d="M64.8376 20.1956H75.4294V24.8889H59.8828V0H75.2499V4.69333H64.8376V9.99111H74.3521V14.6133H64.8376V20.1956Z" fill="#383BCA"/>
<path d="M99.6787 6.33789C100.72 5.15603 100.604 3.35559 99.4197 2.3165C98.2354 1.27741 96.4313 1.39315 95.3901 2.57502L88.6093 10.272C87.5681 11.4538 87.6841 13.2543 88.8684 14.2934C90.0526 15.3324 91.8567 15.2167 92.8979 14.0348L99.6787 6.33789Z" fill="#3B82F6"/>
<path d="M82.833 16.1156C83.0694 15.8475 83.4785 15.8212 83.7473 16.057L87.0629 18.9661C87.3314 19.2019 87.358 19.6104 87.1216 19.8785L83.8102 23.6374C82.7689 24.8193 80.9648 24.935 79.7807 23.8959C78.5962 22.8568 78.4803 21.0564 79.5216 19.8745L82.833 16.1156Z" fill="#3B82F6"/>
<path d="M95.3678 16.1156C95.1317 15.8475 94.7223 15.8212 94.4534 16.057L91.1381 18.9661C90.8693 19.2019 90.8431 19.6104 91.0792 19.8785L92.1383 21.0807C93.1796 22.2626 94.9836 22.3784 96.1678 21.3393C97.3522 20.3002 97.4682 18.4997 96.4269 17.3179L95.3678 16.1156Z" fill="#383BCA"/>
<path d="M80.7623 6.46628C81.7042 5.46697 83.2776 5.41458 84.2888 6.34426C85.9753 7.89539 88.3115 10.0219 88.9246 10.4712C89.9137 11.1958 93.5915 13.017 95.5562 11.0157C95.7385 10.8301 93.9516 13.221 91.5536 15.6256C90.1651 17.0179 87.9429 16.9052 86.5366 15.5305L80.8336 9.95431C79.8626 9.00482 79.8308 7.45453 80.7623 6.46628Z" fill="#383BCA"/>
</g>
<defs>
<clipPath id="clip0_15_8593">
<rect width="160" height="32" fill="white"/>
</clipPath>
</defs>
</svg>
