<svg width="20" height="20" viewBox="0 0 20 20" fill="none" xmlns="http://www.w3.org/2000/svg">
<path d="M8.63292 11.822L3.36975 9.24958C2.24406 8.69942 2.24406 7.09546 3.369 6.54534L8.39646 4.08813C9.05585 3.76555 9.82677 3.76555 10.4862 4.08813L15.5195 6.54758C16.6452 7.09771 16.6452 8.70242 15.5195 9.2525L10.4884 11.7113C9.82677 12.0346 9.05362 12.0346 8.39192 11.7113L5.196 10.1492" stroke="#030712" stroke-width="1.38462" stroke-linecap="round" stroke-linejoin="round"/>
<path d="M16.3712 7.89062L16.3457 12.0551" stroke="#030712" stroke-width="1.38462" stroke-linecap="round" stroke-linejoin="round"/>
<path d="M5.19727 10.1501V13.9741C5.19727 14.6327 5.58797 15.239 6.19647 15.4905C8.33107 16.3714 10.4568 16.3826 12.5741 15.4957C13.1781 15.2427 13.5651 14.6379 13.5651 13.9831V10.2198" stroke="#030712" stroke-width="1.38462" stroke-linecap="round" stroke-linejoin="round"/>
</svg>
