<svg width="20" height="20" viewBox="0 0 20 20" fill="none" xmlns="http://www.w3.org/2000/svg">
<path fill-rule="evenodd" clip-rule="evenodd" d="M6.38523 8.59991H4.27837C3.29614 8.59991 2.5 7.80375 2.5 6.82151V4.71465C2.5 3.73242 3.29614 2.93628 4.27837 2.93628H6.38523C7.36747 2.93628 8.16361 3.73242 8.16361 4.71465V6.82151C8.16361 7.80375 7.36747 8.59991 6.38523 8.59991Z" stroke="#030712" stroke-width="1.5" stroke-linecap="round" stroke-linejoin="round"/>
<path fill-rule="evenodd" clip-rule="evenodd" d="M12.9731 8.51517L11.4835 7.02563C10.7893 6.33143 10.7893 5.20518 11.4835 4.51018L12.9731 3.02065C13.6673 2.32645 14.7935 2.32645 15.4885 3.02065L16.978 4.51018C17.6723 5.20518 17.6723 6.33143 16.978 7.02563L15.4885 8.51517C14.7935 9.21017 13.6673 9.21017 12.9731 8.51517Z" stroke="#030712" stroke-width="1.5" stroke-linecap="round" stroke-linejoin="round"/>
<path fill-rule="evenodd" clip-rule="evenodd" d="M15.2856 17.4996H13.1787C12.1966 17.4996 11.4004 16.7034 11.4004 15.7212V13.6144C11.4004 12.6321 12.1966 11.8359 13.1787 11.8359H15.2856C16.2678 11.8359 17.064 12.6321 17.064 13.6144V15.7212C17.064 16.7034 16.2678 17.4996 15.2856 17.4996Z" stroke="#030712" stroke-width="1.5" stroke-linecap="round" stroke-linejoin="round"/>
<path fill-rule="evenodd" clip-rule="evenodd" d="M6.38523 17.4996H4.27837C3.29614 17.4996 2.5 16.7034 2.5 15.7212V13.6144C2.5 12.6321 3.29614 11.8359 4.27837 11.8359H6.38523C7.36747 11.8359 8.16361 12.6321 8.16361 13.6144V15.7212C8.16361 16.7034 7.36747 17.4996 6.38523 17.4996Z" stroke="#030712" stroke-width="1.5" stroke-linecap="round" stroke-linejoin="round"/>
</svg>
