<svg width="15" height="16" viewBox="0 0 15 16" fill="none" xmlns="http://www.w3.org/2000/svg">
<path d="M10.0666 3.99992V3.46659C10.0666 2.71985 10.0666 2.34648 9.92124 2.06126C9.79341 1.81038 9.58944 1.60641 9.33856 1.47858C9.05334 1.33325 8.67997 1.33325 7.93324 1.33325H6.86657C6.11983 1.33325 5.74646 1.33325 5.46125 1.47858C5.21037 1.60641 5.00639 1.81038 4.87856 2.06126C4.73324 2.34648 4.73324 2.71985 4.73324 3.46659V3.99992M6.06657 7.66659V10.9999M8.73324 7.66659V10.9999M1.3999 3.99992H13.3999M12.0666 3.99992V11.4666C12.0666 12.5867 12.0666 13.1467 11.8486 13.5746C11.6568 13.9509 11.3509 14.2569 10.9746 14.4486C10.5467 14.6666 9.98667 14.6666 8.86657 14.6666H5.93324C4.81313 14.6666 4.25308 14.6666 3.82525 14.4486C3.44893 14.2569 3.14297 13.9509 2.95122 13.5746C2.73324 13.1467 2.73324 12.5867 2.73324 11.4666V3.99992" stroke="#A4A7AE" stroke-width="1.5" stroke-linecap="round" stroke-linejoin="round"/>
</svg>
