<svg width="20" height="20" viewBox="0 0 20 20" fill="none" xmlns="http://www.w3.org/2000/svg">
<path fill-rule="evenodd" clip-rule="evenodd" d="M9.86977 18.0516C6.79329 18.0516 4.16602 17.5728 4.16602 15.6556C4.16602 13.7383 6.77662 11.9683 9.86977 11.9683C12.9463 11.9683 15.5736 13.7211 15.5736 15.6384C15.5736 17.5549 12.963 18.0516 9.86977 18.0516Z" stroke="#030712" stroke-width="2" stroke-linecap="round" stroke-linejoin="round"/>
<path fill-rule="evenodd" clip-rule="evenodd" d="M9.86502 9.3114C11.884 9.3114 13.5204 7.675 13.5204 5.65607C13.5204 3.63713 11.884 2 9.86502 2C7.84612 2 6.20901 3.63713 6.20901 5.65607C6.20219 7.66818 7.82719 9.30457 9.83927 9.3114C9.84836 9.3114 9.85669 9.3114 9.86502 9.3114Z" stroke="#030712" stroke-width="2" stroke-linecap="round" stroke-linejoin="round"/>
</svg>
