<svg width="20" height="21" viewBox="0 0 20 21" fill="none" xmlns="http://www.w3.org/2000/svg">
<path fill-rule="evenodd" clip-rule="evenodd" d="M9.38554 7.19287C11.0693 7.19287 12.4339 8.55706 12.4339 10.2397C12.4339 11.9239 11.0693 13.2896 9.38554 13.2896C7.7017 13.2896 6.33789 11.9239 6.33789 10.2397C6.33789 8.55706 7.7017 7.19287 9.38554 7.19287ZM11.28 10.2397C11.28 9.19409 10.4323 8.34672 9.38554 8.34672C8.33908 8.34672 7.49174 9.19409 7.49174 10.2397C7.49174 11.2869 8.33908 12.1358 9.38554 12.1358C10.4323 12.1358 11.28 11.2869 11.28 10.2397Z" fill="#030712"/>
<path fill-rule="evenodd" clip-rule="evenodd" d="M15.372 9.97983C15.1707 10.097 15.1714 10.3854 15.3712 10.5011C16.4165 11.1051 16.776 12.4422 16.1721 13.4879L15.5921 14.493C15.2154 15.1466 14.5524 15.5312 13.8531 15.5823C13.4317 15.6123 12.9974 15.5207 12.6046 15.2938C12.4044 15.1781 12.1534 15.3224 12.1534 15.5537C12.1534 16.7617 11.1751 17.7412 9.96675 17.7412H8.8069C7.59893 17.7412 6.61974 16.7617 6.61974 15.5537C6.61974 15.3238 6.36959 15.1781 6.16902 15.2938C5.42458 15.7235 4.5329 15.6664 3.86283 15.2202C3.59127 15.0399 3.35615 14.795 3.18224 14.493L2.60194 13.4879C1.99835 12.4422 2.35592 11.1051 3.40197 10.5011C3.60216 10.3854 3.60292 10.097 3.40197 9.97983C2.35592 9.37737 1.99835 8.04019 2.60194 6.99301L3.18224 5.98941C3.50864 5.4245 4.04912 5.05942 4.6422 4.93923C5.14625 4.83706 5.68825 4.91068 6.16902 5.18863C6.36959 5.30431 6.61974 5.16008 6.61974 4.92871C6.61974 4.40287 6.80491 3.9206 7.11328 3.5435C7.51442 3.05371 8.12405 2.74121 8.8069 2.74121H9.96675C11.1743 2.74121 12.1534 3.72078 12.1534 4.92871C12.1534 5.16008 12.4044 5.30431 12.6046 5.18863C13.6506 4.58466 14.9881 4.94373 15.5921 5.98941L16.1721 6.99301C16.776 8.04019 16.4165 9.37737 15.372 9.97983ZM15.1729 7.56993L14.593 6.56633C14.4018 6.2343 14.0551 6.0495 13.6991 6.048C13.5233 6.048 13.3453 6.09307 13.1822 6.18773C12.7465 6.44013 12.2621 6.43713 11.8601 6.25683C11.3677 6.03448 10.9996 5.5447 10.9996 4.92871C10.9996 4.6042 10.8509 4.31423 10.6177 4.12493C10.44 3.9807 10.2135 3.89506 9.96675 3.89506H8.8069C8.23667 3.89506 7.77359 4.3578 7.77359 4.92871C7.77359 6.048 6.5619 6.74812 5.59209 6.18773C5.23753 5.9834 4.81197 6.01194 4.49459 6.22829C4.36989 6.31243 4.26172 6.42661 4.18134 6.56633L3.60141 7.56993C3.31595 8.06573 3.48498 8.69523 3.97889 8.98067C4.60276 9.34129 4.82549 10.0504 4.64595 10.6589C4.5468 10.9954 4.32444 11.3004 3.97889 11.5002C3.48498 11.7857 3.31595 12.4167 3.60141 12.911L4.18134 13.9161C4.46679 14.4104 5.09743 14.5801 5.59209 14.2947C6.56115 13.7358 7.77359 14.4344 7.77359 15.5537C7.77359 15.8647 7.91105 16.1441 8.12852 16.3334C8.30998 16.4912 8.54736 16.5874 8.8069 16.5874H9.96675C10.5377 16.5874 10.9996 16.1246 10.9996 15.5537C10.9996 14.4344 12.2121 13.7358 13.1815 14.2947C13.6751 14.5801 14.3075 14.4104 14.593 13.9161L15.1729 12.911C15.4576 12.4182 15.2882 11.7857 14.7943 11.5002C13.8245 10.9398 13.8253 9.5426 14.7936 8.98067C15.0959 8.80644 15.2766 8.50293 15.3067 8.18142C15.3258 7.97559 15.2837 7.76224 15.1729 7.56993Z" fill="#030712"/>
</svg>
