<svg width="9" height="18" viewBox="0 0 9 18" fill="none" xmlns="http://www.w3.org/2000/svg">
<path d="M8.33839 0.609964C8.50919 0.199318 9.09091 0.199318 9.26171 0.609964L11.3278 5.57744C11.3998 5.75056 11.5626 5.86885 11.7495 5.88383L17.1123 6.31376C17.5556 6.3493 17.7354 6.90256 17.3976 7.19189L13.3117 10.6919C13.1693 10.8139 13.1072 11.0053 13.1507 11.1876L14.399 16.4208C14.5022 16.8534 14.0315 17.1954 13.652 16.9635L9.06068 14.1592C8.90067 14.0615 8.69943 14.0615 8.53942 14.1592L3.94811 16.9635C3.56856 17.1954 3.09793 16.8534 3.20113 16.4208L4.44943 11.1876C4.49294 11.0053 4.43075 10.8139 4.28836 10.6919L0.202462 7.19189C-0.135307 6.90256 0.0444564 6.3493 0.487783 6.31376L5.85059 5.88383C6.03749 5.86885 6.20029 5.75056 6.2723 5.57744L8.33839 0.609964Z" fill="#FDB022"/>
</svg>
