<svg width="17" height="16" viewBox="0 0 17 16" fill="none" xmlns="http://www.w3.org/2000/svg">
<path d="M11.0666 3.99992V3.46659C11.0666 2.71985 11.0666 2.34648 10.9212 2.06126C10.7934 1.81038 10.5894 1.60641 10.3386 1.47858C10.0533 1.33325 9.67997 1.33325 8.93324 1.33325H7.86657C7.11983 1.33325 6.74646 1.33325 6.46125 1.47858C6.21037 1.60641 6.00639 1.81038 5.87856 2.06126C5.73324 2.34648 5.73324 2.71985 5.73324 3.46659V3.99992M7.06657 7.66659V10.9999M9.73324 7.66659V10.9999M2.3999 3.99992H14.3999M13.0666 3.99992V11.4666C13.0666 12.5867 13.0666 13.1467 12.8486 13.5746C12.6568 13.9509 12.3509 14.2569 11.9746 14.4486C11.5467 14.6666 10.9867 14.6666 9.86657 14.6666H6.93324C5.81313 14.6666 5.25308 14.6666 4.82525 14.4486C4.44893 14.2569 4.14297 13.9509 3.95122 13.5746C3.73324 13.1467 3.73324 12.5867 3.73324 11.4666V3.99992" stroke="#A4A7AE" stroke-width="1.5" stroke-linecap="round" stroke-linejoin="round"/>
</svg>
