<svg width="20" height="20" viewBox="0 0 20 20" fill="none" xmlns="http://www.w3.org/2000/svg">
<path fill-rule="evenodd" clip-rule="evenodd" d="M9.9777 16.9735C7.27849 16.9735 4.97266 16.5652 4.97266 14.9302C4.97266 13.2952 7.26349 11.8718 9.9777 11.8718C12.6769 11.8718 14.9827 13.2818 14.9827 14.916C14.9827 16.5502 12.6919 16.9735 9.9777 16.9735Z" stroke="#030712" stroke-width="1.5" stroke-linecap="round" stroke-linejoin="round"/>
<path fill-rule="evenodd" clip-rule="evenodd" d="M9.9779 9.54062C11.7496 9.54062 13.1862 8.10476 13.1862 6.33309C13.1862 4.56142 11.7496 3.12476 9.9779 3.12476C8.20621 3.12476 6.76954 4.56142 6.76954 6.33309C6.76454 8.09809 8.18954 9.53479 9.9554 9.54062H9.9779Z" stroke="#030712" stroke-width="1.5" stroke-linecap="round" stroke-linejoin="round"/>
<path d="M15.3024 8.65981C16.3332 8.38398 17.0932 7.44394 17.0932 6.32478C17.0932 5.15728 16.2657 4.18228 15.1641 3.95728" stroke="#030712" stroke-width="1.5" stroke-linecap="round" stroke-linejoin="round"/>
<path d="M15.7852 11.2871C17.2468 11.2871 18.4952 12.2779 18.4952 13.1629C18.4952 13.6838 18.0643 14.2513 17.411 14.4046" stroke="#030712" stroke-width="1.5" stroke-linecap="round" stroke-linejoin="round"/>
<path d="M4.65299 8.65981C3.62133 8.38398 2.86133 7.44394 2.86133 6.32478C2.86133 5.15728 3.68966 4.18228 4.79049 3.95728" stroke="#030712" stroke-width="1.5" stroke-linecap="round" stroke-linejoin="round"/>
<path d="M4.16898 11.2871C2.70732 11.2871 1.45898 12.2779 1.45898 13.1629C1.45898 13.6838 1.88982 14.2513 2.54398 14.4046" stroke="#030712" stroke-width="1.5" stroke-linecap="round" stroke-linejoin="round"/>
</svg>
