<svg width="20" height="20" viewBox="0 0 20 20" fill="none" xmlns="http://www.w3.org/2000/svg">
<path fill-rule="evenodd" clip-rule="evenodd" d="M9.37567 12.2114C6.97397 12.2114 4.92578 12.604 4.92578 14.1751C4.92578 15.747 6.96302 16.153 9.37567 16.153C11.7757 16.153 13.8255 15.7596 13.8255 14.1884C13.8255 12.6181 11.7891 12.2114 9.37567 12.2114Z" stroke="#030712" stroke-width="1.38462" stroke-linecap="round" stroke-linejoin="round"/>
<path fill-rule="evenodd" clip-rule="evenodd" d="M12.4469 6.91965C12.4469 8.61665 11.0713 9.99311 9.37347 9.99311C7.6764 9.99311 6.30078 8.61665 6.30078 6.91965C6.30078 5.2226 7.6764 3.84619 9.37347 3.84619C11.0713 3.84619 12.4469 5.2226 12.4469 6.91965Z" stroke="#030712" stroke-width="1.38462" stroke-linecap="round" stroke-linejoin="round"/>
<path d="M4.3734 11.0967H4.36715C3.0408 11.3031 2.11328 11.7857 2.11328 12.7585C2.11328 13.2606 2.36276 13.6328 2.78897 13.9027" stroke="#030712" stroke-width="1.38462" stroke-linecap="round" stroke-linejoin="round"/>
<path d="M14.3203 11.0967H14.3265C15.6529 11.3031 16.5804 11.7857 16.5804 12.7585C16.5804 13.2606 16.3309 13.6328 15.9047 13.9027" stroke="#030712" stroke-width="1.38462" stroke-linecap="round" stroke-linejoin="round"/>
<path d="M14.0833 8.7754C15.0631 8.40864 15.6286 7.356 15.3634 6.319C15.1492 5.48065 14.454 4.89333 13.6484 4.77759" stroke="#030712" stroke-width="1.38462" stroke-linecap="round" stroke-linejoin="round"/>
<path d="M4.61111 8.7754C3.6312 8.40864 3.06579 7.356 3.33089 6.319C3.54518 5.48065 4.24042 4.89333 5.04593 4.77759" stroke="#030712" stroke-width="1.38462" stroke-linecap="round" stroke-linejoin="round"/>
</svg>
