<svg width="13" height="12" viewBox="0 0 13 12" fill="none" xmlns="http://www.w3.org/2000/svg">
<path fill-rule="evenodd" clip-rule="evenodd" d="M11.6795 3.81099L8.9462 3.43275C8.79153 3.41419 8.65687 3.32139 8.58553 3.18443L7.36687 0.842035C7.36487 0.839475 7.36353 0.836915 7.3622 0.833715C7.2502 0.634675 7.0762 0.467634 6.8662 0.360754C6.30153 0.0849145 5.60087 0.297395 5.30287 0.842035L4.08289 3.18379C4.01089 3.32075 3.87489 3.41419 3.71423 3.43339L0.986893 3.81099C0.722893 3.84875 0.49156 3.96139 0.31956 4.13546C0.10756 4.34602 -0.00577341 4.62378 0.000226586 4.9169C0.00622659 5.21002 0.130893 5.48202 0.34956 5.68298L2.32756 7.51082C2.43756 7.60938 2.48889 7.75978 2.46223 7.90634L1.99489 10.4779C1.95489 10.7179 1.99756 10.9655 2.11356 11.1703C2.25889 11.4327 2.50089 11.6241 2.79556 11.7111C2.90689 11.7438 3.02089 11.7598 3.13356 11.7598C3.31889 11.7598 3.50223 11.7163 3.66823 11.6311L6.1082 10.4203C6.24953 10.3479 6.41953 10.3479 6.5642 10.4215L8.9922 11.6273C9.2102 11.7425 9.45887 11.7841 9.72087 11.7457C10.3469 11.6471 10.7755 11.0775 10.6735 10.4727L10.2069 7.90634C10.1795 7.7553 10.2302 7.60746 10.3455 7.50122L12.3175 5.68298C12.5022 5.5121 12.6235 5.28362 12.6569 5.03978C12.7389 4.4433 12.2995 3.89163 11.6795 3.81099Z" fill="#030712"/>
</svg>
