<svg width="19" height="25" viewBox="0 0 19 25" fill="none" xmlns="http://www.w3.org/2000/svg">
<path d="M10.2425 0.704346C12.5253 0.704346 14.4689 1.57581 16.0738 3.31875C17.701 5.03902 18.5146 7.15542 18.5146 9.66793C18.5146 12.1805 17.701 14.3082 16.0738 16.0511C14.4689 17.7714 12.5253 18.6315 10.2425 18.6315C7.86942 18.6315 6.03849 17.8053 4.75039 16.153V24.9468H0.376953V1.17969H4.75039V3.18292C6.03849 1.53056 7.86942 0.704346 10.2425 0.704346ZM6.0725 13.1311C6.95412 14.0139 8.07282 14.4553 9.42894 14.4553C10.7851 14.4553 11.9038 14.0139 12.7851 13.1311C13.6893 12.2257 14.1412 11.0713 14.1412 9.66793C14.1412 8.26456 13.6893 7.12148 12.7851 6.2387C11.9038 5.33329 10.7851 4.88057 9.42894 4.88057C8.07282 4.88057 6.95412 5.33329 6.0725 6.2387C5.1912 7.12148 4.75039 8.26456 4.75039 9.66793C4.75039 11.0713 5.1912 12.2257 6.0725 13.1311Z" fill="#383BCA"/>
</svg>
